<?xml version="1.0" encoding="UTF-8"?>
<!DOCTYPE svg PUBLIC "-//W3C//DTD SVG 1.1//EN" "http://www.w3.org/Graphics/SVG/1.1/DTD/svg11.dtd">
<svg xmlns="http://www.w3.org/2000/svg" version="1.1" width="583px" height="583px" style="shape-rendering:geometricPrecision; text-rendering:geometricPrecision; image-rendering:optimizeQuality; fill-rule:evenodd; clip-rule:evenodd" xmlns:xlink="http://www.w3.org/1999/xlink">
<g><path style="opacity:1" fill="#fefefe" d="M -0.5,-0.5 C 193.833,-0.5 388.167,-0.5 582.5,-0.5C 582.5,45.5 582.5,91.5 582.5,137.5C 580.854,131.401 578.687,125.401 576,119.5C 570.162,113.995 564.662,108.162 559.5,102C 549.742,97.1439 539.409,94.6439 528.5,94.5C 371.001,93.3339 213.334,93.1672 55.5,94C 51.118,94.2917 46.7847,94.7917 42.5,95.5C 38.8379,95.7234 35.5046,96.7234 32.5,98.5C 30.0462,99.2271 27.7128,100.227 25.5,101.5C 23.6203,101.229 22.287,101.896 21.5,103.5C 16.5326,108.803 11.5326,114.136 6.5,119.5C 3.81635,125.837 1.48302,132.17 -0.5,138.5C -0.5,92.1667 -0.5,45.8333 -0.5,-0.5 Z"/></g>
<g><path style="opacity:1" fill="#e98636" d="M 528.5,94.5 C 372.833,94.5 217.167,94.5 61.5,94.5C 60.448,94.3505 59.448,94.5172 58.5,95C 70.9628,106.145 83.2962,117.145 95.5,128C 102.99,132.738 109.657,138.405 115.5,145C 122.987,148.148 128.987,153.148 133.5,160C 136.997,162.583 140.664,164.916 144.5,167C 148.392,172.698 153.392,177.031 159.5,180C 164.324,184.824 168.991,189.491 173.5,194C 180.017,197.506 185.684,202.173 190.5,208C 197.413,213.513 204.413,218.846 211.5,224C 303.499,224.5 395.499,224.667 487.5,224.5C 519.167,224.5 550.833,224.5 582.5,224.5C 582.5,224.833 582.5,225.167 582.5,225.5C 550.833,225.5 519.167,225.5 487.5,225.5C 324.833,225.5 162.167,225.5 -0.5,225.5C -0.5,196.5 -0.5,167.5 -0.5,138.5C 1.48302,132.17 3.81635,125.837 6.5,119.5C 11.5326,114.136 16.5326,108.803 21.5,103.5C 23.153,103.34 24.4863,102.674 25.5,101.5C 27.7128,100.227 30.0462,99.2271 32.5,98.5C 36.1621,98.2766 39.4954,97.2766 42.5,95.5C 46.7847,94.7917 51.118,94.2917 55.5,94C 213.334,93.1672 371.001,93.3339 528.5,94.5 Z"/></g>
<g><path style="opacity:1" fill="#efa366" d="M 42.5,95.5 C 39.4954,97.2766 36.1621,98.2766 32.5,98.5C 35.5046,96.7234 38.8379,95.7234 42.5,95.5 Z"/></g>
<g><path style="opacity:1" fill="#d86619" d="M 61.5,94.5 C 217.167,94.5 372.833,94.5 528.5,94.5C 539.409,94.6439 549.742,97.1439 559.5,102C 564.662,108.162 570.162,113.995 576,119.5C 578.687,125.401 580.854,131.401 582.5,137.5C 582.5,166.5 582.5,195.5 582.5,224.5C 550.833,224.5 519.167,224.5 487.5,224.5C 463.225,216.798 438.891,208.965 414.5,201C 395.066,196.519 376.066,190.853 357.5,184C 340.659,180.049 324.325,175.049 308.5,169C 289.306,164.543 270.639,158.876 252.5,152C 231.946,147.499 211.946,141.499 192.5,134C 175.568,130.575 159.235,125.575 143.5,119C 132.913,116.02 122.246,113.353 111.5,111C 94.9813,104.875 78.3147,99.3745 61.5,94.5 Z"/></g>
<g><path style="opacity:1" fill="#e17322" d="M 61.5,94.5 C 78.3147,99.3745 94.9813,104.875 111.5,111C 122.246,113.353 132.913,116.02 143.5,119C 159.235,125.575 175.568,130.575 192.5,134C 211.946,141.499 231.946,147.499 252.5,152C 270.639,158.876 289.306,164.543 308.5,169C 324.325,175.049 340.659,180.049 357.5,184C 376.066,190.853 395.066,196.519 414.5,201C 438.891,208.965 463.225,216.798 487.5,224.5C 395.499,224.667 303.499,224.5 211.5,224C 204.413,218.846 197.413,213.513 190.5,208C 185.684,202.173 180.017,197.506 173.5,194C 168.991,189.491 164.324,184.824 159.5,180C 153.392,177.031 148.392,172.698 144.5,167C 140.664,164.916 136.997,162.583 133.5,160C 128.987,153.148 122.987,148.148 115.5,145C 109.657,138.405 102.99,132.738 95.5,128C 83.2962,117.145 70.9628,106.145 58.5,95C 59.448,94.5172 60.448,94.3505 61.5,94.5 Z"/></g>
<g><path style="opacity:1" fill="#f2b27d" d="M 25.5,101.5 C 24.4863,102.674 23.153,103.34 21.5,103.5C 22.287,101.896 23.6203,101.229 25.5,101.5 Z"/></g>
<g><path style="opacity:1" fill="#fbfaef" d="M -0.5,226.5 C 70.8341,226.333 142.167,226.5 213.5,227C 215.762,229.931 218.595,232.097 222,233.5C 222.483,234.448 222.649,235.448 222.5,236.5C 226.737,236.897 229.737,239.064 231.5,243C 236.397,245.939 241.064,249.106 245.5,252.5C 242.803,255.388 240.636,258.721 239,262.5C 231.47,276.004 229.47,290.338 233,305.5C 236.688,315.209 241.688,324.209 248,332.5C 255.193,339.681 263.693,344.681 273.5,347.5C 275.562,348.776 277.896,349.61 280.5,350C 286.016,350.817 291.35,350.651 296.5,349.5C 300.56,349.515 304.56,349.015 308.5,348C 313.5,345.667 318.5,343.333 323.5,341C 326.792,337.194 330.459,334.027 334.5,331.5C 335.5,330.833 336.5,330.167 337.5,329.5C 344.216,334.53 350.55,340.03 356.5,346C 359.447,346.112 360.78,347.612 360.5,350.5C 361.873,350.343 363.207,350.51 364.5,351C 365.878,352.713 367.545,354.047 369.5,355C 246.167,355.5 122.834,355.667 -0.5,355.5C -0.5,312.5 -0.5,269.5 -0.5,226.5 Z"/></g>
<g><path style="opacity:1" fill="#f6f3e1" d="M -0.5,226.5 C -0.5,226.167 -0.5,225.833 -0.5,225.5C 162.167,225.5 324.833,225.5 487.5,225.5C 495.168,228.21 503.168,230.043 511.5,231C 525.239,235.183 538.906,239.517 552.5,244C 555.5,244.333 558.5,244.667 561.5,245C 568.482,247.303 575.482,249.47 582.5,251.5C 582.5,286.5 582.5,321.5 582.5,356.5C 388.167,356.5 193.833,356.5 -0.5,356.5C -0.5,356.167 -0.5,355.833 -0.5,355.5C 122.834,355.667 246.167,355.5 369.5,355C 367.545,354.047 365.878,352.713 364.5,351C 363.207,350.51 361.873,350.343 360.5,350.5C 360.78,347.612 359.447,346.112 356.5,346C 350.55,340.03 344.216,334.53 337.5,329.5C 338.11,328.609 338.443,327.609 338.5,326.5C 338.5,326.167 338.5,325.833 338.5,325.5C 340.587,324.415 341.92,322.749 342.5,320.5C 343.687,317.388 345.02,314.388 346.5,311.5C 348.655,309.383 349.655,306.716 349.5,303.5C 353.363,270.388 340.03,247.222 309.5,234C 295.09,229.986 281.09,230.819 267.5,236.5C 265.62,236.229 264.287,236.896 263.5,238.5C 257.413,241.539 252.079,245.539 247.5,250.5C 246.833,251.167 246.167,251.833 245.5,252.5C 241.064,249.106 236.397,245.939 231.5,243C 229.737,239.064 226.737,236.897 222.5,236.5C 222.649,235.448 222.483,234.448 222,233.5C 218.595,232.097 215.762,229.931 213.5,227C 142.167,226.5 70.8341,226.333 -0.5,226.5 Z"/></g>
<g><path style="opacity:1" fill="#f1e7c0" d="M 487.5,225.5 C 519.167,225.5 550.833,225.5 582.5,225.5C 582.5,234.167 582.5,242.833 582.5,251.5C 575.482,249.47 568.482,247.303 561.5,245C 558.5,244.667 555.5,244.333 552.5,244C 538.906,239.517 525.239,235.183 511.5,231C 503.168,230.043 495.168,228.21 487.5,225.5 Z"/></g>
<g><path style="opacity:1" fill="#6565b3" d="M 349.5,303.5 C 348.129,305.936 347.129,308.603 346.5,311.5C 345.02,314.388 343.687,317.388 342.5,320.5C 340.413,321.585 339.08,323.251 338.5,325.5C 338.5,325.833 338.5,326.167 338.5,326.5C 337.833,326.833 337.167,327.167 336.5,327.5C 334.685,326.37 332.685,325.704 330.5,325.5C 330.5,323.833 330.5,322.167 330.5,320.5C 330.5,320.167 330.5,319.833 330.5,319.5C 332.167,319.5 333.833,319.5 335.5,319.5C 335.737,318.209 335.404,317.209 334.5,316.5C 335.167,315.833 335.833,315.167 336.5,314.5C 336.34,312.801 336.506,311.134 337,309.5C 338.417,308.922 339.25,307.922 339.5,306.5C 340.117,306.389 340.617,306.056 341,305.5C 341.777,302.571 341.61,299.737 340.5,297C 341.381,296.292 342.047,295.458 342.5,294.5C 342.736,291.391 342.403,288.391 341.5,285.5C 340.359,283.451 340.359,281.451 341.5,279.5C 342.097,279.265 342.43,278.765 342.5,278C 341.659,274.75 339.659,272.917 336.5,272.5C 336.664,269.813 336.497,267.146 336,264.5C 335.329,263.748 334.496,263.414 333.5,263.5C 332.85,263.196 332.183,262.863 331.5,262.5C 330.386,256.551 326.886,253.217 321,252.5C 320.79,250.942 320.29,249.609 319.5,248.5C 318.07,247.463 316.403,246.796 314.5,246.5C 312.5,246.5 310.5,246.5 308.5,246.5C 308.715,244.821 308.048,243.821 306.5,243.5C 305.053,242.115 304.053,242.448 303.5,244.5C 302.381,252.703 300.715,260.703 298.5,268.5C 296.628,272.62 295.461,276.953 295,281.5C 296.596,278.214 298.096,274.88 299.5,271.5C 301.892,268.402 304.058,265.069 306,261.5C 307.113,260.695 308.279,260.028 309.5,259.5C 310.167,259.5 310.5,259.833 310.5,260.5C 309.158,264.844 307.158,268.844 304.5,272.5C 302.925,275.582 300.758,278.249 298,280.5C 297.333,281.5 297.333,282.5 298,283.5C 301.088,280.919 303.588,277.919 305.5,274.5C 307.46,272.844 309.46,271.177 311.5,269.5C 312.492,269.328 313.158,269.662 313.5,270.5C 311.774,272.228 310.441,274.228 309.5,276.5C 306.25,278.243 303.416,280.577 301,283.5C 301.019,285.107 301.185,286.774 301.5,288.5C 303.099,288.768 304.432,288.434 305.5,287.5C 314.528,287.32 323.528,287.653 332.5,288.5C 328.817,290.25 324.817,290.917 320.5,290.5C 314.167,290.5 307.833,290.5 301.5,290.5C 301.5,291.833 301.5,293.167 301.5,294.5C 300.262,295.412 298.928,295.579 297.5,295C 295.595,293.185 293.928,291.185 292.5,289C 289.424,287.757 286.757,285.923 284.5,283.5C 285.167,282.833 285.833,282.167 286.5,281.5C 287.209,280.596 288.209,280.263 289.5,280.5C 290.33,271.676 290.83,262.676 291,253.5C 291.232,254.737 291.732,255.737 292.5,256.5C 292.335,259.518 292.502,262.518 293,265.5C 295.396,258.145 297.896,250.812 300.5,243.5C 301.404,242.791 301.737,241.791 301.5,240.5C 298.624,240.792 295.957,240.792 293.5,240.5C 291.735,239.539 289.735,239.205 287.5,239.5C 285.685,240.63 283.685,241.296 281.5,241.5C 280.791,240.596 279.791,240.263 278.5,240.5C 276.973,240.427 275.973,241.094 275.5,242.5C 274.094,242.973 273.427,243.973 273.5,245.5C 270.482,245.335 267.482,245.502 264.5,246C 263.034,247.552 262.034,249.386 261.5,251.5C 259.369,252.169 257.369,252.835 255.5,253.5C 254.5,253.833 253.833,254.5 253.5,255.5C 252.833,255.5 252.5,255.833 252.5,256.5C 248.686,256.349 247.019,254.349 247.5,250.5C 252.079,245.539 257.413,241.539 263.5,238.5C 265.153,238.34 266.486,237.674 267.5,236.5C 281.09,230.819 295.09,229.986 309.5,234C 340.03,247.222 353.363,270.388 349.5,303.5 Z"/></g>
<g><path style="opacity:1" fill="#a6a4c8" d="M 267.5,236.5 C 266.486,237.674 265.153,238.34 263.5,238.5C 264.287,236.896 265.62,236.229 267.5,236.5 Z"/></g>
<g><path style="opacity:1" fill="#aeadca" d="M 287.5,239.5 C 286.08,242.349 284.08,243.016 281.5,241.5C 283.685,241.296 285.685,240.63 287.5,239.5 Z"/></g>
<g><path style="opacity:1" fill="#eceade" d="M 287.5,239.5 C 289.735,239.205 291.735,239.539 293.5,240.5C 293.47,241.497 293.97,242.164 295,242.5C 297.428,240.87 299.261,241.203 300.5,243.5C 297.896,250.812 295.396,258.145 293,265.5C 292.502,262.518 292.335,259.518 292.5,256.5C 292.5,253.833 292.5,251.167 292.5,248.5C 291.5,241.833 290.5,241.833 289.5,248.5C 288.607,258.861 288.607,269.195 289.5,279.5C 288.508,279.672 287.842,279.338 287.5,278.5C 287.196,272.258 285.862,266.258 283.5,260.5C 282.302,257.574 281.302,254.574 280.5,251.5C 279.358,247.929 278.691,244.262 278.5,240.5C 279.791,240.263 280.791,240.596 281.5,241.5C 284.08,243.016 286.08,242.349 287.5,239.5 Z"/></g>
<g><path style="opacity:1" fill="#b4b3cd" d="M 293.5,240.5 C 295.957,240.792 298.624,240.792 301.5,240.5C 301.737,241.791 301.404,242.791 300.5,243.5C 299.261,241.203 297.428,240.87 295,242.5C 293.97,242.164 293.47,241.497 293.5,240.5 Z"/></g>
<g><path style="opacity:1" fill="#afaecb" d="M 306.5,243.5 C 305.391,243.557 304.391,243.89 303.5,244.5C 304.053,242.448 305.053,242.115 306.5,243.5 Z"/></g>
<g><path style="opacity:1" fill="#b9b6cd" d="M 275.5,242.5 C 275.715,244.179 275.048,245.179 273.5,245.5C 273.427,243.973 274.094,242.973 275.5,242.5 Z"/></g>
<g><path style="opacity:1" fill="#eceade" d="M 306.5,243.5 C 308.048,243.821 308.715,244.821 308.5,246.5C 310.5,246.5 312.5,246.5 314.5,246.5C 314.611,247.117 314.944,247.617 315.5,248C 312.831,251.505 310.831,255.338 309.5,259.5C 308.279,260.028 307.113,260.695 306,261.5C 304.058,265.069 301.892,268.402 299.5,271.5C 298.596,270.791 298.263,269.791 298.5,268.5C 300.715,260.703 302.381,252.703 303.5,244.5C 304.391,243.89 305.391,243.557 306.5,243.5 Z"/></g>
<g><path style="opacity:1" fill="#bdbccf" d="M 278.5,240.5 C 278.691,244.262 279.358,247.929 280.5,251.5C 279.662,251.842 279.328,252.508 279.5,253.5C 278.657,250.674 277.991,247.674 277.5,244.5C 277.253,243.287 276.586,242.62 275.5,242.5C 275.973,241.094 276.973,240.427 278.5,240.5 Z"/></g>
<g><path style="opacity:1" fill="#acabca" d="M 292.5,248.5 C 291.5,247.167 290.5,247.167 289.5,248.5C 290.5,241.833 291.5,241.833 292.5,248.5 Z"/></g>
<g><path style="opacity:1" fill="#eae8de" d="M 275.5,242.5 C 276.586,242.62 277.253,243.287 277.5,244.5C 277.991,247.674 278.657,250.674 279.5,253.5C 279.927,256.01 280.593,258.343 281.5,260.5C 281.873,263.574 282.539,266.574 283.5,269.5C 283.672,270.492 283.338,271.158 282.5,271.5C 280.588,269.343 278.921,267.009 277.5,264.5C 274.803,261.612 272.636,258.279 271,254.5C 270.346,253.304 269.846,253.304 269.5,254.5C 271.089,259.351 273.422,263.685 276.5,267.5C 277.167,268.833 277.833,270.167 278.5,271.5C 278.5,272.167 278.167,272.5 277.5,272.5C 272.167,268.167 266.833,263.833 261.5,259.5C 260.445,256.445 258.445,254.445 255.5,253.5C 257.369,252.835 259.369,252.169 261.5,251.5C 262.034,249.386 263.034,247.552 264.5,246C 267.482,245.502 270.482,245.335 273.5,245.5C 275.048,245.179 275.715,244.179 275.5,242.5 Z"/></g>
<g><path style="opacity:1" fill="#8280bc" d="M 314.5,246.5 C 316.403,246.796 318.07,247.463 319.5,248.5C 318.504,248.414 317.671,248.748 317,249.5C 314.506,253.117 312.339,256.784 310.5,260.5C 310.5,259.833 310.167,259.5 309.5,259.5C 310.831,255.338 312.831,251.505 315.5,248C 314.944,247.617 314.611,247.117 314.5,246.5 Z"/></g>
<g><path style="opacity:1" fill="#9d9dc5" d="M 255.5,253.5 C 258.445,254.445 260.445,256.445 261.5,259.5C 260.833,259.5 260.5,259.833 260.5,260.5C 258.125,258.776 255.792,257.11 253.5,255.5C 253.833,254.5 254.5,253.833 255.5,253.5 Z"/></g>
<g><path style="opacity:1" fill="#9493c2" d="M 280.5,251.5 C 281.302,254.574 282.302,257.574 283.5,260.5C 282.604,259.494 281.938,259.494 281.5,260.5C 280.593,258.343 279.927,256.01 279.5,253.5C 279.328,252.508 279.662,251.842 280.5,251.5 Z"/></g>
<g><path style="opacity:1" fill="#8989bf" d="M 277.5,264.5 C 276.596,265.209 276.263,266.209 276.5,267.5C 273.422,263.685 271.089,259.351 269.5,254.5C 269.846,253.304 270.346,253.304 271,254.5C 272.636,258.279 274.803,261.612 277.5,264.5 Z"/></g>
<g><path style="opacity:1" fill="#ebe9de" d="M 319.5,248.5 C 320.29,249.609 320.79,250.942 321,252.5C 326.886,253.217 330.386,256.551 331.5,262.5C 332.183,262.863 332.85,263.196 333.5,263.5C 330.117,266.204 326.451,268.537 322.5,270.5C 319.6,271.443 317.267,273.11 315.5,275.5C 313.716,275.893 312.05,276.559 310.5,277.5C 309.833,277.5 309.5,277.167 309.5,276.5C 310.441,274.228 311.774,272.228 313.5,270.5C 314.721,269.972 315.887,269.305 317,268.5C 318.4,265.098 320.567,262.264 323.5,260C 322.833,259.333 322.167,259.333 321.5,260C 318.271,263.399 314.938,266.565 311.5,269.5C 309.46,271.177 307.46,272.844 305.5,274.5C 304.662,274.158 304.328,273.492 304.5,272.5C 307.158,268.844 309.158,264.844 310.5,260.5C 312.339,256.784 314.506,253.117 317,249.5C 317.671,248.748 318.504,248.414 319.5,248.5 Z"/></g>
<g><path style="opacity:1" fill="#7e7dbb" d="M 292.5,248.5 C 292.5,251.167 292.5,253.833 292.5,256.5C 291.732,255.737 291.232,254.737 291,253.5C 290.83,262.676 290.33,271.676 289.5,280.5C 289.5,280.167 289.5,279.833 289.5,279.5C 288.607,269.195 288.607,258.861 289.5,248.5C 290.5,247.167 291.5,247.167 292.5,248.5 Z"/></g>
<g><path style="opacity:1" fill="#7e7cbb" d="M 313.5,270.5 C 313.158,269.662 312.492,269.328 311.5,269.5C 314.938,266.565 318.271,263.399 321.5,260C 322.167,259.333 322.833,259.333 323.5,260C 320.567,262.264 318.4,265.098 317,268.5C 315.887,269.305 314.721,269.972 313.5,270.5 Z"/></g>
<g><path style="opacity:1" fill="#7b7aba" d="M 283.5,260.5 C 285.862,266.258 287.196,272.258 287.5,278.5C 286.017,275.567 284.683,272.567 283.5,269.5C 282.539,266.574 281.873,263.574 281.5,260.5C 281.938,259.494 282.604,259.494 283.5,260.5 Z"/></g>
<g><path style="opacity:1" fill="#c1bfd1" d="M 333.5,263.5 C 334.496,263.414 335.329,263.748 336,264.5C 336.497,267.146 336.664,269.813 336.5,272.5C 335.691,270.708 335.191,268.708 335,266.5C 331.258,267.798 327.758,269.465 324.5,271.5C 324.158,270.662 323.492,270.328 322.5,270.5C 326.451,268.537 330.117,266.204 333.5,263.5 Z"/></g>
<g><path style="opacity:1" fill="#f0eddf" d="M 336.5,272.5 C 337.091,273.151 337.757,273.818 338.5,274.5C 338.291,275.086 337.957,275.586 337.5,276C 330.649,278.229 323.649,279.729 316.5,280.5C 315.209,280.737 314.209,280.404 313.5,279.5C 315.322,277.99 317.322,276.657 319.5,275.5C 320.945,273.937 322.611,272.604 324.5,271.5C 327.758,269.465 331.258,267.798 335,266.5C 335.191,268.708 335.691,270.708 336.5,272.5 Z"/></g>
<g><path style="opacity:1" fill="#6c6cb5" d="M 277.5,264.5 C 278.921,267.009 280.588,269.343 282.5,271.5C 283.234,272.708 283.567,274.041 283.5,275.5C 283.631,276.239 283.464,276.906 283,277.5C 281.236,275.611 279.736,273.611 278.5,271.5C 277.833,270.167 277.167,268.833 276.5,267.5C 276.263,266.209 276.596,265.209 277.5,264.5 Z"/></g>
<g><path style="opacity:1" fill="#b9b9d0" d="M 298.5,268.5 C 298.263,269.791 298.596,270.791 299.5,271.5C 298.096,274.88 296.596,278.214 295,281.5C 295.461,276.953 296.628,272.62 298.5,268.5 Z"/></g>
<g><path style="opacity:1" fill="#8c8bc0" d="M 322.5,270.5 C 323.492,270.328 324.158,270.662 324.5,271.5C 322.611,272.604 320.945,273.937 319.5,275.5C 319.631,274.761 319.464,274.094 319,273.5C 318.184,274.823 317.017,275.489 315.5,275.5C 317.267,273.11 319.6,271.443 322.5,270.5 Z"/></g>
<g><path style="opacity:1" fill="#aeadcb" d="M 283.5,269.5 C 284.683,272.567 286.017,275.567 287.5,278.5C 287.842,279.338 288.508,279.672 289.5,279.5C 289.5,279.833 289.5,280.167 289.5,280.5C 288.209,280.263 287.209,280.596 286.5,281.5C 285.508,281.672 284.842,281.338 284.5,280.5C 284.784,278.585 284.451,276.919 283.5,275.5C 283.567,274.041 283.234,272.708 282.5,271.5C 283.338,271.158 283.672,270.492 283.5,269.5 Z"/></g>
<g><path style="opacity:1" fill="#6f6eb6" d="M 261.5,259.5 C 266.833,263.833 272.167,268.167 277.5,272.5C 278.45,276.413 280.783,279.08 284.5,280.5C 284.842,281.338 285.508,281.672 286.5,281.5C 285.833,282.167 285.167,282.833 284.5,283.5C 284.167,283.5 283.833,283.5 283.5,283.5C 280.337,281.189 277.003,279.022 273.5,277C 272.915,275.698 272.249,274.531 271.5,273.5C 267.404,269.522 263.738,265.189 260.5,260.5C 260.5,259.833 260.833,259.5 261.5,259.5 Z"/></g>
<g><path style="opacity:1" fill="#f5f4ed" d="M 253.5,255.5 C 255.792,257.11 258.125,258.776 260.5,260.5C 263.738,265.189 267.404,269.522 271.5,273.5C 271.737,274.791 271.404,275.791 270.5,276.5C 266.581,274.903 262.914,272.903 259.5,270.5C 256.058,269.527 252.892,267.861 250,265.5C 248.392,265.974 248.226,266.641 249.5,267.5C 251.85,268.861 254.184,270.194 256.5,271.5C 261.688,275.571 267.355,278.904 273.5,281.5C 274.66,283.203 273.993,283.869 271.5,283.5C 269.102,283.741 267.102,283.074 265.5,281.5C 264.737,280.732 263.737,280.232 262.5,280C 257.809,279.396 253.142,279.063 248.5,279C 253.084,281.137 257.75,282.971 262.5,284.5C 265.421,284.283 268.087,284.949 270.5,286.5C 267.797,288.11 264.797,289.11 261.5,289.5C 258.833,289.5 256.167,289.5 253.5,289.5C 250.167,289.5 246.833,289.5 243.5,289.5C 243.5,290.5 243.5,291.5 243.5,292.5C 245.5,292.5 247.5,292.5 249.5,292.5C 251.5,292.5 253.5,292.5 255.5,292.5C 257.833,292.5 260.167,292.5 262.5,292.5C 266.982,293.326 271.649,293.826 276.5,294C 274.942,294.21 273.609,294.71 272.5,295.5C 268.803,296.008 265.136,296.674 261.5,297.5C 256.86,299.149 252.193,300.816 247.5,302.5C 248.333,302.833 249.167,303.167 250,303.5C 253.677,303.028 257.177,302.362 260.5,301.5C 262.857,301.337 265.19,301.503 267.5,302C 266.584,302.278 265.918,302.778 265.5,303.5C 263.301,305.102 261.301,306.936 259.5,309C 256.866,309.65 254.533,310.817 252.5,312.5C 250.215,313.225 248.382,314.558 247,316.5C 246.057,313.749 245.224,311.083 244.5,308.5C 243.167,308.5 241.833,308.5 240.5,308.5C 239.439,304.649 239.439,300.815 240.5,297C 237.833,293 237.833,289 240.5,285C 238.106,279.33 239.606,275.163 245,272.5C 244.208,269.809 244.541,267.142 246,264.5C 247.884,263.023 249.884,261.69 252,260.5C 252.49,259.207 252.657,257.873 252.5,256.5C 252.5,255.833 252.833,255.5 253.5,255.5 Z"/></g>
<g><path style="opacity:1" fill="#d1d0df" d="M 259.5,270.5 C 258.209,270.263 257.209,270.596 256.5,271.5C 254.184,270.194 251.85,268.861 249.5,267.5C 248.226,266.641 248.392,265.974 250,265.5C 252.892,267.861 256.058,269.527 259.5,270.5 Z"/></g>
<g><path style="opacity:1" fill="#7272b7" d="M 319.5,275.5 C 317.322,276.657 315.322,277.99 313.5,279.5C 311.278,280.688 308.945,281.688 306.5,282.5C 305.761,282.631 305.094,282.464 304.5,282C 306.526,280.406 308.526,278.906 310.5,277.5C 312.05,276.559 313.716,275.893 315.5,275.5C 317.017,275.489 318.184,274.823 319,273.5C 319.464,274.094 319.631,274.761 319.5,275.5 Z"/></g>
<g><path style="opacity:1" fill="#908fc1" d="M 278.5,271.5 C 279.736,273.611 281.236,275.611 283,277.5C 283.464,276.906 283.631,276.239 283.5,275.5C 284.451,276.919 284.784,278.585 284.5,280.5C 280.783,279.08 278.45,276.413 277.5,272.5C 278.167,272.5 278.5,272.167 278.5,271.5 Z"/></g>
<g><path style="opacity:1" fill="#ebe9de" d="M 341.5,279.5 C 340.351,279.791 339.684,280.624 339.5,282C 339.387,283.699 340.053,284.866 341.5,285.5C 342.403,288.391 342.736,291.391 342.5,294.5C 340.748,294.418 339.748,295.251 339.5,297C 340.233,298.766 340.567,300.599 340.5,302.5C 338.708,302.634 337.042,302.301 335.5,301.5C 328.008,298.708 320.341,296.375 312.5,294.5C 312.389,293.883 312.056,293.383 311.5,293C 313.708,292.809 315.708,292.309 317.5,291.5C 318.5,291.5 319.5,291.5 320.5,291.5C 326.334,291.95 332.001,291.283 337.5,289.5C 335.955,288.548 334.288,288.215 332.5,288.5C 323.528,287.653 314.528,287.32 305.5,287.5C 304.761,287.631 304.094,287.464 303.5,287C 305.058,286.79 306.391,286.29 307.5,285.5C 311.262,285.309 314.929,284.642 318.5,283.5C 325.029,280.819 331.863,278.819 339,277.5C 340.376,277.684 341.209,278.351 341.5,279.5 Z"/></g>
<g><path style="opacity:1" fill="#9e9dc5" d="M 336.5,272.5 C 339.659,272.917 341.659,274.75 342.5,278C 342.43,278.765 342.097,279.265 341.5,279.5C 341.209,278.351 340.376,277.684 339,277.5C 331.863,278.819 325.029,280.819 318.5,283.5C 319.66,281.797 318.993,281.131 316.5,281.5C 316.5,281.167 316.5,280.833 316.5,280.5C 323.649,279.729 330.649,278.229 337.5,276C 337.957,275.586 338.291,275.086 338.5,274.5C 337.757,273.818 337.091,273.151 336.5,272.5 Z"/></g>
<g><path style="opacity:1" fill="#9392c5" d="M 256.5,271.5 C 257.209,270.596 258.209,270.263 259.5,270.5C 262.914,272.903 266.581,274.903 270.5,276.5C 272.676,278.515 275.176,280.182 278,281.5C 278.688,282.332 278.521,282.998 277.5,283.5C 276.378,282.37 275.044,281.703 273.5,281.5C 267.355,278.904 261.688,275.571 256.5,271.5 Z"/></g>
<g><path style="opacity:1" fill="#d0d0df" d="M 265.5,281.5 C 262.507,280.865 259.507,280.699 256.5,281C 258.91,281.6 260.91,282.766 262.5,284.5C 257.75,282.971 253.084,281.137 248.5,279C 253.142,279.063 257.809,279.396 262.5,280C 263.737,280.232 264.737,280.732 265.5,281.5 Z"/></g>
<g><path style="opacity:1" fill="#c8c8db" d="M 271.5,273.5 C 272.249,274.531 272.915,275.698 273.5,277C 277.003,279.022 280.337,281.189 283.5,283.5C 283.715,285.179 283.048,286.179 281.5,286.5C 277.952,285.87 274.619,284.87 271.5,283.5C 273.993,283.869 274.66,283.203 273.5,281.5C 275.044,281.703 276.378,282.37 277.5,283.5C 278.521,282.998 278.688,282.332 278,281.5C 275.176,280.182 272.676,278.515 270.5,276.5C 271.404,275.791 271.737,274.791 271.5,273.5 Z"/></g>
<g><path style="opacity:1" fill="#a2a1c9" d="M 304.5,272.5 C 304.328,273.492 304.662,274.158 305.5,274.5C 303.588,277.919 301.088,280.919 298,283.5C 297.333,282.5 297.333,281.5 298,280.5C 300.758,278.249 302.925,275.582 304.5,272.5 Z"/></g>
<g><path style="opacity:1" fill="#8d8cc0" d="M 341.5,279.5 C 340.359,281.451 340.359,283.451 341.5,285.5C 340.053,284.866 339.387,283.699 339.5,282C 339.684,280.624 340.351,279.791 341.5,279.5 Z"/></g>
<g><path style="opacity:1" fill="#bcbbd0" d="M 313.5,279.5 C 314.209,280.404 315.209,280.737 316.5,280.5C 316.5,280.833 316.5,281.167 316.5,281.5C 313.197,282.439 309.864,283.439 306.5,284.5C 305.494,284.062 305.494,283.396 306.5,282.5C 308.945,281.688 311.278,280.688 313.5,279.5 Z"/></g>
<g><path style="opacity:1" fill="#9a99c4" d="M 309.5,276.5 C 309.5,277.167 309.833,277.5 310.5,277.5C 308.526,278.906 306.526,280.406 304.5,282C 305.094,282.464 305.761,282.631 306.5,282.5C 305.494,283.396 305.494,284.062 306.5,284.5C 306.5,285.167 306.833,285.5 307.5,285.5C 306.391,286.29 305.058,286.79 303.5,287C 304.094,287.464 304.761,287.631 305.5,287.5C 304.432,288.434 303.099,288.768 301.5,288.5C 301.185,286.774 301.019,285.107 301,283.5C 303.416,280.577 306.25,278.243 309.5,276.5 Z"/></g>
<g><path style="opacity:1" fill="#7d7cba" d="M 316.5,281.5 C 318.993,281.131 319.66,281.797 318.5,283.5C 314.929,284.642 311.262,285.309 307.5,285.5C 306.833,285.5 306.5,285.167 306.5,284.5C 309.864,283.439 313.197,282.439 316.5,281.5 Z"/></g>
<g><path style="opacity:1" fill="#9695c6" d="M 265.5,281.5 C 267.102,283.074 269.102,283.741 271.5,283.5C 274.619,284.87 277.952,285.87 281.5,286.5C 281.5,287.833 281.5,289.167 281.5,290.5C 272.494,290.334 263.494,290.5 254.5,291C 255.056,291.383 255.389,291.883 255.5,292.5C 253.5,292.5 251.5,292.5 249.5,292.5C 249.389,291.883 249.056,291.383 248.5,291C 250.382,290.802 252.048,290.302 253.5,289.5C 256.167,289.5 258.833,289.5 261.5,289.5C 267.868,289.83 274.202,289.496 280.5,288.5C 277.212,287.555 273.879,286.888 270.5,286.5C 268.087,284.949 265.421,284.283 262.5,284.5C 260.91,282.766 258.91,281.6 256.5,281C 259.507,280.699 262.507,280.865 265.5,281.5 Z"/></g>
<g><path style="opacity:1" fill="#7e7ebc" d="M 283.5,283.5 C 283.833,283.5 284.167,283.5 284.5,283.5C 286.757,285.923 289.424,287.757 292.5,289C 293.928,291.185 295.595,293.185 297.5,295C 298.928,295.579 300.262,295.412 301.5,294.5C 301.369,295.376 301.702,296.043 302.5,296.5C 305.195,297.508 307.862,298.508 310.5,299.5C 314.909,302.367 318.909,305.701 322.5,309.5C 323.058,310.79 324.058,311.623 325.5,312C 324.552,312.483 323.552,312.649 322.5,312.5C 317.73,310.021 313.064,307.354 308.5,304.5C 307.791,303.596 306.791,303.263 305.5,303.5C 303.429,302.109 301.762,300.276 300.5,298C 298.735,297.36 297.068,297.527 295.5,298.5C 292.833,298.5 290.167,298.5 287.5,298.5C 286.142,297.374 284.808,297.374 283.5,298.5C 280.761,301.233 278.427,304.233 276.5,307.5C 275.29,307.932 274.29,308.599 273.5,309.5C 272.508,309.672 271.842,309.338 271.5,308.5C 271.263,307.209 271.596,306.209 272.5,305.5C 275.75,303.757 278.584,301.423 281,298.5C 281.18,296.512 281.014,294.512 280.5,292.5C 274.5,292.5 268.5,292.5 262.5,292.5C 260.167,292.5 257.833,292.5 255.5,292.5C 255.389,291.883 255.056,291.383 254.5,291C 263.494,290.5 272.494,290.334 281.5,290.5C 281.5,289.167 281.5,287.833 281.5,286.5C 283.048,286.179 283.715,285.179 283.5,283.5 Z"/></g>
<g><path style="opacity:1" fill="#d4d4e0" d="M 270.5,286.5 C 273.879,286.888 277.212,287.555 280.5,288.5C 274.202,289.496 267.868,289.83 261.5,289.5C 264.797,289.11 267.797,288.11 270.5,286.5 Z"/></g>
<g><path style="opacity:1" fill="#9897c4" d="M 332.5,288.5 C 334.288,288.215 335.955,288.548 337.5,289.5C 332.001,291.283 326.334,291.95 320.5,291.5C 320.5,291.167 320.5,290.833 320.5,290.5C 324.817,290.917 328.817,290.25 332.5,288.5 Z"/></g>
<g><path style="opacity:1" fill="#c8c7da" d="M 253.5,289.5 C 252.048,290.302 250.382,290.802 248.5,291C 249.056,291.383 249.389,291.883 249.5,292.5C 247.5,292.5 245.5,292.5 243.5,292.5C 243.5,291.5 243.5,290.5 243.5,289.5C 246.833,289.5 250.167,289.5 253.5,289.5 Z"/></g>
<g><path style="opacity:1" fill="#b4b2cd" d="M 317.5,291.5 C 315.708,292.309 313.708,292.809 311.5,293C 312.056,293.383 312.389,293.883 312.5,294.5C 309.012,294.078 305.679,293.245 302.5,292C 307.489,291.501 312.489,291.334 317.5,291.5 Z"/></g>
<g><path style="opacity:1" fill="#c8c7dc" d="M 262.5,292.5 C 268.5,292.5 274.5,292.5 280.5,292.5C 281.014,294.512 281.18,296.512 281,298.5C 278.584,301.423 275.75,303.757 272.5,305.5C 272.5,304.833 272.167,304.5 271.5,304.5C 273.469,302.841 275.469,301.175 277.5,299.5C 276.192,298.374 274.858,298.374 273.5,299.5C 272.791,298.596 271.791,298.263 270.5,298.5C 272.277,297.4 274.277,296.566 276.5,296C 275.207,295.51 273.873,295.343 272.5,295.5C 273.609,294.71 274.942,294.21 276.5,294C 271.649,293.826 266.982,293.326 262.5,292.5 Z"/></g>
<g><path style="opacity:1" fill="#c4c3d3" d="M 301.5,294.5 C 305.659,295.664 309.659,296.997 313.5,298.5C 312.209,298.263 311.209,298.596 310.5,299.5C 307.862,298.508 305.195,297.508 302.5,296.5C 301.702,296.043 301.369,295.376 301.5,294.5 Z"/></g>
<g><path style="opacity:1" fill="#7372b7" d="M 320.5,290.5 C 320.5,290.833 320.5,291.167 320.5,291.5C 319.5,291.5 318.5,291.5 317.5,291.5C 312.489,291.334 307.489,291.501 302.5,292C 305.679,293.245 309.012,294.078 312.5,294.5C 320.341,296.375 328.008,298.708 335.5,301.5C 335.158,302.338 334.492,302.672 333.5,302.5C 326.62,302.021 319.953,300.688 313.5,298.5C 309.659,296.997 305.659,295.664 301.5,294.5C 301.5,293.167 301.5,291.833 301.5,290.5C 307.833,290.5 314.167,290.5 320.5,290.5 Z"/></g>
<g><path style="opacity:1" fill="#cdccde" d="M 287.5,298.5 C 289.428,307.235 290.095,316.235 289.5,325.5C 290.5,325.5 291.5,325.5 292.5,325.5C 292.5,326.167 292.5,326.833 292.5,327.5C 292.664,330.187 292.497,332.854 292,335.5C 291.586,335.957 291.086,336.291 290.5,336.5C 289.49,326.836 288.157,317.503 286.5,308.5C 286.851,306.131 287.018,303.797 287,301.5C 284.878,305.198 283.545,309.198 283,313.5C 282.617,314.056 282.117,314.389 281.5,314.5C 282.218,312.863 282.384,311.197 282,309.5C 281.617,310.056 281.117,310.389 280.5,310.5C 284.177,300.205 283.177,299.872 277.5,309.5C 277.672,308.508 277.338,307.842 276.5,307.5C 278.427,304.233 280.761,301.233 283.5,298.5C 284.808,297.374 286.142,297.374 287.5,298.5 Z"/></g>
<g><path style="opacity:1" fill="#8e8dc2" d="M 272.5,295.5 C 273.873,295.343 275.207,295.51 276.5,296C 274.277,296.566 272.277,297.4 270.5,298.5C 266.793,298.604 263.46,299.604 260.5,301.5C 258.801,301.66 257.134,301.494 255.5,301C 257.91,300.4 259.91,299.234 261.5,297.5C 265.136,296.674 268.803,296.008 272.5,295.5 Z"/></g>
<g><path style="opacity:1" fill="#e2e2e7" d="M 270.5,298.5 C 271.791,298.263 272.791,298.596 273.5,299.5C 271.302,301.098 268.969,302.431 266.5,303.5C 266.167,303.5 265.833,303.5 265.5,303.5C 265.918,302.778 266.584,302.278 267.5,302C 265.19,301.503 262.857,301.337 260.5,301.5C 263.46,299.604 266.793,298.604 270.5,298.5 Z"/></g>
<g><path style="opacity:1" fill="#edebdf" d="M 313.5,298.5 C 319.953,300.688 326.62,302.021 333.5,302.5C 334.952,303.302 336.618,303.802 338.5,304C 339.252,304.671 339.586,305.504 339.5,306.5C 339.25,307.922 338.417,308.922 337,309.5C 336.506,311.134 336.34,312.801 336.5,314.5C 334.254,313.545 331.921,312.878 329.5,312.5C 327.824,310.166 325.491,309.166 322.5,309.5C 318.909,305.701 314.909,302.367 310.5,299.5C 311.209,298.596 312.209,298.263 313.5,298.5 Z"/></g>
<g><path style="opacity:1" fill="#cbcbdc" d="M 261.5,297.5 C 259.91,299.234 257.91,300.4 255.5,301C 257.134,301.494 258.801,301.66 260.5,301.5C 257.177,302.362 253.677,303.028 250,303.5C 249.167,303.167 248.333,302.833 247.5,302.5C 252.193,300.816 256.86,299.149 261.5,297.5 Z"/></g>
<g><path style="opacity:1" fill="#9191c4" d="M 271.5,304.5 C 270.167,304.833 268.833,305.167 267.5,305.5C 265.302,305.591 264.969,304.925 266.5,303.5C 268.969,302.431 271.302,301.098 273.5,299.5C 274.858,298.374 276.192,298.374 277.5,299.5C 275.469,301.175 273.469,302.841 271.5,304.5 Z"/></g>
<g><path style="opacity:1" fill="#a7a6c9" d="M 342.5,294.5 C 342.047,295.458 341.381,296.292 340.5,297C 341.61,299.737 341.777,302.571 341,305.5C 340.617,306.056 340.117,306.389 339.5,306.5C 339.586,305.504 339.252,304.671 338.5,304C 336.618,303.802 334.952,303.302 333.5,302.5C 334.492,302.672 335.158,302.338 335.5,301.5C 337.042,302.301 338.708,302.634 340.5,302.5C 340.567,300.599 340.233,298.766 339.5,297C 339.748,295.251 340.748,294.418 342.5,294.5 Z"/></g>
<g><path style="opacity:1" fill="#d5d5e1" d="M 305.5,303.5 C 304.867,303.88 304.2,304.213 303.5,304.5C 304.193,305.518 304.859,306.518 305.5,307.5C 304.662,307.842 304.328,308.508 304.5,309.5C 298.872,299.834 297.872,300.168 301.5,310.5C 299.797,309.34 299.131,310.007 299.5,312.5C 297.592,308.097 296.259,303.43 295.5,298.5C 297.068,297.527 298.735,297.36 300.5,298C 301.762,300.276 303.429,302.109 305.5,303.5 Z"/></g>
<g><path style="opacity:1" fill="#a7a7cd" d="M 265.5,303.5 C 265.833,303.5 266.167,303.5 266.5,303.5C 264.969,304.925 265.302,305.591 267.5,305.5C 263.171,308.667 258.505,311.334 253.5,313.5C 252.833,313.5 252.5,313.167 252.5,312.5C 254.533,310.817 256.866,309.65 259.5,309C 261.301,306.936 263.301,305.102 265.5,303.5 Z"/></g>
<g><path style="opacity:1" fill="#a0a0cb" d="M 305.5,303.5 C 306.791,303.263 307.791,303.596 308.5,304.5C 307.624,304.369 306.957,304.702 306.5,305.5C 308.05,307.428 309.717,309.261 311.5,311C 310.833,311.667 310.167,311.667 309.5,311C 307.907,310.051 306.574,308.885 305.5,307.5C 304.859,306.518 304.193,305.518 303.5,304.5C 304.2,304.213 304.867,303.88 305.5,303.5 Z"/></g>
<g><path style="opacity:1" fill="#bdbbd0" d="M 349.5,303.5 C 349.655,306.716 348.655,309.383 346.5,311.5C 347.129,308.603 348.129,305.936 349.5,303.5 Z"/></g>
<g><path style="opacity:1" fill="#9493c5" d="M 304.5,309.5 C 307.088,313.674 309.421,318.007 311.5,322.5C 311.5,323.167 311.167,323.5 310.5,323.5C 307.253,319.341 304.253,315.008 301.5,310.5C 297.872,300.168 298.872,299.834 304.5,309.5 Z"/></g>
<g><path style="opacity:1" fill="#8d8dc2" d="M 286.5,308.5 C 285.188,312.416 284.188,316.416 283.5,320.5C 281.952,320.179 281.285,319.179 281.5,317.5C 281.5,316.5 281.5,315.5 281.5,314.5C 282.117,314.389 282.617,314.056 283,313.5C 283.545,309.198 284.878,305.198 287,301.5C 287.018,303.797 286.851,306.131 286.5,308.5 Z"/></g>
<g><path style="opacity:1" fill="#f4f3ed" d="M 271.5,304.5 C 272.167,304.5 272.5,304.833 272.5,305.5C 271.596,306.209 271.263,307.209 271.5,308.5C 269.163,310.666 266.663,312.666 264,314.5C 263.654,316.848 262.487,318.681 260.5,320C 261.167,320.667 261.833,320.667 262.5,320C 266.062,316.268 269.729,312.768 273.5,309.5C 274.29,308.599 275.29,307.932 276.5,307.5C 277.338,307.842 277.672,308.508 277.5,309.5C 275.399,312.265 273.733,315.265 272.5,318.5C 269.709,322.33 267.376,326.497 265.5,331C 265.974,332.608 266.641,332.774 267.5,331.5C 269.781,327.935 271.781,324.268 273.5,320.5C 275.846,317.129 278.179,313.796 280.5,310.5C 281.117,310.389 281.617,310.056 282,309.5C 282.384,311.197 282.218,312.863 281.5,314.5C 281.5,315.5 281.5,316.5 281.5,317.5C 279.515,322.209 278.682,327.209 279,332.5C 279.9,328.202 281.4,324.202 283.5,320.5C 284.188,316.416 285.188,312.416 286.5,308.5C 288.157,317.503 289.49,326.836 290.5,336.5C 291.086,336.291 291.586,335.957 292,335.5C 292.497,332.854 292.664,330.187 292.5,327.5C 292.854,321.594 293.854,315.927 295.5,310.5C 296.924,312.515 297.59,314.848 297.5,317.5C 299.178,322.468 301.011,327.468 303,332.5C 303.279,328.3 302.779,324.3 301.5,320.5C 300.709,317.885 300.043,315.218 299.5,312.5C 299.131,310.007 299.797,309.34 301.5,310.5C 304.253,315.008 307.253,319.341 310.5,323.5C 311.889,326.607 313.555,329.607 315.5,332.5C 316.583,331.635 316.749,330.635 316,329.5C 314.581,327.007 313.081,324.674 311.5,322.5C 309.421,318.007 307.088,313.674 304.5,309.5C 304.328,308.508 304.662,307.842 305.5,307.5C 306.574,308.885 307.907,310.051 309.5,311C 310.167,311.667 310.833,311.667 311.5,311C 309.717,309.261 308.05,307.428 306.5,305.5C 306.957,304.702 307.624,304.369 308.5,304.5C 313.064,307.354 317.73,310.021 322.5,312.5C 326.365,313.359 329.031,315.692 330.5,319.5C 330.5,319.833 330.5,320.167 330.5,320.5C 329.833,320.5 329.5,320.833 329.5,321.5C 328.837,323.042 328.17,324.709 327.5,326.5C 324.946,324.292 322.446,321.959 320,319.5C 319.833,319.833 319.667,320.167 319.5,320.5C 321.39,323.654 323.723,326.321 326.5,328.5C 324.621,329.341 322.621,329.675 320.5,329.5C 321.026,332.808 319.693,334.974 316.5,336C 313.854,336.497 311.187,336.664 308.5,336.5C 308.5,337.5 308.5,338.5 308.5,339.5C 305.935,340.642 303.269,341.642 300.5,342.5C 298.945,342.278 297.611,341.611 296.5,340.5C 293.242,342.68 289.909,343.014 286.5,341.5C 286.53,340.503 286.03,339.836 285,339.5C 281.046,341.076 277.546,340.409 274.5,337.5C 270.875,336.671 267.208,335.838 263.5,335C 262.833,333.333 262.167,331.667 261.5,330C 255.258,329.738 251.924,326.571 251.5,320.5C 250.192,319.768 248.858,318.934 247.5,318C 249.631,316.53 251.631,315.03 253.5,313.5C 258.505,311.334 263.171,308.667 267.5,305.5C 268.833,305.167 270.167,304.833 271.5,304.5 Z"/></g>
<g><path style="opacity:1" fill="#9999c7" d="M 271.5,308.5 C 271.842,309.338 272.508,309.672 273.5,309.5C 269.729,312.768 266.062,316.268 262.5,320C 261.833,320.667 261.167,320.667 260.5,320C 262.487,318.681 263.654,316.848 264,314.5C 266.663,312.666 269.163,310.666 271.5,308.5 Z"/></g>
<g><path style="opacity:1" fill="#8b8abf" d="M 329.5,312.5 C 331.921,312.878 334.254,313.545 336.5,314.5C 335.833,315.167 335.167,315.833 334.5,316.5C 332.611,315.396 330.945,314.063 329.5,312.5 Z"/></g>
<g><path style="opacity:1" fill="#8989c0" d="M 287.5,298.5 C 290.167,298.5 292.833,298.5 295.5,298.5C 296.259,303.43 297.592,308.097 299.5,312.5C 300.043,315.218 300.709,317.885 301.5,320.5C 301.649,321.552 301.483,322.552 301,323.5C 299.541,321.568 298.375,319.568 297.5,317.5C 297.59,314.848 296.924,312.515 295.5,310.5C 295.475,307.04 294.808,303.706 293.5,300.5C 292.502,308.807 292.169,317.14 292.5,325.5C 291.5,325.5 290.5,325.5 289.5,325.5C 290.095,316.235 289.428,307.235 287.5,298.5 Z"/></g>
<g><path style="opacity:1" fill="#9494c5" d="M 280.5,310.5 C 278.179,313.796 275.846,317.129 273.5,320.5C 272.662,320.158 272.328,319.492 272.5,318.5C 273.733,315.265 275.399,312.265 277.5,309.5C 283.177,299.872 284.177,300.205 280.5,310.5 Z"/></g>
<g><path style="opacity:1" fill="#dddce3" d="M 244.5,308.5 C 245.224,311.083 246.057,313.749 247,316.5C 248.382,314.558 250.215,313.225 252.5,312.5C 252.5,313.167 252.833,313.5 253.5,313.5C 251.631,315.03 249.631,316.53 247.5,318C 248.858,318.934 250.192,319.768 251.5,320.5C 248.192,321.026 246.026,319.693 245,316.5C 244.503,313.854 244.336,311.187 244.5,308.5 Z"/></g>
<g><path style="opacity:1" fill="#bcbbcf" d="M 322.5,309.5 C 325.491,309.166 327.824,310.166 329.5,312.5C 330.945,314.063 332.611,315.396 334.5,316.5C 335.404,317.209 335.737,318.209 335.5,319.5C 333.833,319.5 332.167,319.5 330.5,319.5C 329.031,315.692 326.365,313.359 322.5,312.5C 323.552,312.649 324.552,312.483 325.5,312C 324.058,311.623 323.058,310.79 322.5,309.5 Z"/></g>
<g><path style="opacity:1" fill="#8181bd" d="M 247.5,250.5 C 247.019,254.349 248.686,256.349 252.5,256.5C 252.657,257.873 252.49,259.207 252,260.5C 249.884,261.69 247.884,263.023 246,264.5C 244.541,267.142 244.208,269.809 245,272.5C 239.606,275.163 238.106,279.33 240.5,285C 237.833,289 237.833,293 240.5,297C 239.439,300.815 239.439,304.649 240.5,308.5C 241.833,308.5 243.167,308.5 244.5,308.5C 244.336,311.187 244.503,313.854 245,316.5C 246.026,319.693 248.192,321.026 251.5,320.5C 251.924,326.571 255.258,329.738 261.5,330C 262.167,331.667 262.833,333.333 263.5,335C 267.208,335.838 270.875,336.671 274.5,337.5C 277.046,342.203 280.546,343.203 285,340.5C 285.383,341.056 285.883,341.389 286.5,341.5C 289.909,343.014 293.242,342.68 296.5,340.5C 297.611,341.611 298.945,342.278 300.5,342.5C 303.269,341.642 305.935,340.642 308.5,339.5C 308.5,338.5 308.5,337.5 308.5,336.5C 311.187,336.664 313.854,336.497 316.5,336C 319.693,334.974 321.026,332.808 320.5,329.5C 322.621,329.675 324.621,329.341 326.5,328.5C 329.021,326.97 330.021,324.636 329.5,321.5C 329.5,320.833 329.833,320.5 330.5,320.5C 330.5,322.167 330.5,323.833 330.5,325.5C 332.685,325.704 334.685,326.37 336.5,327.5C 335.4,328.605 334.733,329.938 334.5,331.5C 330.459,334.027 326.792,337.194 323.5,341C 318.5,343.333 313.5,345.667 308.5,348C 304.56,349.015 300.56,349.515 296.5,349.5C 288.753,349.648 281.087,348.981 273.5,347.5C 263.693,344.681 255.193,339.681 248,332.5C 241.688,324.209 236.688,315.209 233,305.5C 229.47,290.338 231.47,276.004 239,262.5C 240.636,258.721 242.803,255.388 245.5,252.5C 246.167,251.833 246.833,251.167 247.5,250.5 Z"/></g>
<g><path style="opacity:1" fill="#d8d8e2" d="M 295.5,310.5 C 293.854,315.927 292.854,321.594 292.5,327.5C 292.5,326.833 292.5,326.167 292.5,325.5C 292.169,317.14 292.502,308.807 293.5,300.5C 294.808,303.706 295.475,307.04 295.5,310.5 Z"/></g>
<g><path style="opacity:1" fill="#b2b1cc" d="M 342.5,320.5 C 341.92,322.749 340.587,324.415 338.5,325.5C 339.08,323.251 340.413,321.585 342.5,320.5 Z"/></g>
<g><path style="opacity:1" fill="#b2b1d1" d="M 281.5,317.5 C 281.285,319.179 281.952,320.179 283.5,320.5C 281.4,324.202 279.9,328.202 279,332.5C 278.682,327.209 279.515,322.209 281.5,317.5 Z"/></g>
<g><path style="opacity:1" fill="#bfbfd7" d="M 297.5,317.5 C 298.375,319.568 299.541,321.568 301,323.5C 301.483,322.552 301.649,321.552 301.5,320.5C 302.779,324.3 303.279,328.3 303,332.5C 301.011,327.468 299.178,322.468 297.5,317.5 Z"/></g>
<g><path style="opacity:1" fill="#acaccf" d="M 329.5,321.5 C 330.021,324.636 329.021,326.97 326.5,328.5C 323.723,326.321 321.39,323.654 319.5,320.5C 319.667,320.167 319.833,319.833 320,319.5C 322.446,321.959 324.946,324.292 327.5,326.5C 328.17,324.709 328.837,323.042 329.5,321.5 Z"/></g>
<g><path style="opacity:1" fill="#d0cfde" d="M 272.5,318.5 C 272.328,319.492 272.662,320.158 273.5,320.5C 271.781,324.268 269.781,327.935 267.5,331.5C 266.641,332.774 265.974,332.608 265.5,331C 267.376,326.497 269.709,322.33 272.5,318.5 Z"/></g>
<g><path style="opacity:1" fill="#d6d5e1" d="M 311.5,322.5 C 313.081,324.674 314.581,327.007 316,329.5C 316.749,330.635 316.583,331.635 315.5,332.5C 313.555,329.607 311.889,326.607 310.5,323.5C 311.167,323.5 311.5,323.167 311.5,322.5 Z"/></g>
<g><path style="opacity:1" fill="#cccbdb" d="M 338.5,326.5 C 338.443,327.609 338.11,328.609 337.5,329.5C 336.5,330.167 335.5,330.833 334.5,331.5C 334.733,329.938 335.4,328.605 336.5,327.5C 337.167,327.167 337.833,326.833 338.5,326.5 Z"/></g>
<g><path style="opacity:1" fill="#cdccdd" d="M 274.5,337.5 C 277.546,340.409 281.046,341.076 285,339.5C 286.03,339.836 286.53,340.503 286.5,341.5C 285.883,341.389 285.383,341.056 285,340.5C 280.546,343.203 277.046,342.203 274.5,337.5 Z"/></g>
<g><path style="opacity:1" fill="#9898c7" d="M 273.5,347.5 C 281.087,348.981 288.753,349.648 296.5,349.5C 291.35,350.651 286.016,350.817 280.5,350C 277.896,349.61 275.562,348.776 273.5,347.5 Z"/></g>
<g><path style="opacity:1" fill="#359846" d="M -0.5,356.5 C 193.833,356.5 388.167,356.5 582.5,356.5C 582.5,356.833 582.5,357.167 582.5,357.5C 512.164,357.167 441.83,357.5 371.5,358.5C 385.606,370.424 399.939,382.257 414.5,394C 418.494,400.167 423.828,404.667 430.5,407.5C 435.11,413.613 440.777,418.447 447.5,422C 450.698,425.112 453.698,428.445 456.5,432C 304.167,432.5 151.834,432.667 -0.5,432.5C -0.5,407.167 -0.5,381.833 -0.5,356.5 Z"/></g>
<g><path style="opacity:1" fill="#20862e" d="M 582.5,357.5 C 582.5,382.833 582.5,408.167 582.5,433.5C 388.5,433.5 194.5,433.5 0.5,433.5C 1.22948,438.13 1.56282,442.797 1.5,447.5C 0.833333,445.5 0.166667,443.5 -0.5,441.5C -0.5,438.5 -0.5,435.5 -0.5,432.5C 151.834,432.667 304.167,432.5 456.5,432C 453.698,428.445 450.698,425.112 447.5,422C 440.777,418.447 435.11,413.613 430.5,407.5C 423.828,404.667 418.494,400.167 414.5,394C 399.939,382.257 385.606,370.424 371.5,358.5C 441.83,357.5 512.164,357.167 582.5,357.5 Z"/></g>
<g><path style="opacity:1" fill="#187a21" d="M 582.5,433.5 C 582.5,436.5 582.5,439.5 582.5,442.5C 581.51,446.386 580.51,450.386 579.5,454.5C 577.935,456.509 576.935,458.843 576.5,461.5C 570.699,467.471 565.033,473.637 559.5,480C 549.52,484.576 539.187,487.409 528.5,488.5C 367.155,488.822 205.822,488.489 44.5,487.5C 37.0379,485.734 29.7046,483.234 22.5,480C 18.3011,474.972 13.9678,470.139 9.5,465.5C 9.17876,463.952 8.17876,463.285 6.5,463.5C 6.73731,462.209 6.40397,461.209 5.5,460.5C 4.97588,458.694 4.30921,457.028 3.5,455.5C 2.6295,452.888 1.96283,450.221 1.5,447.5C 1.56282,442.797 1.22948,438.13 0.5,433.5C 194.5,433.5 388.5,433.5 582.5,433.5 Z"/></g>
<g><path style="opacity:1" fill="#fefefe" d="M 582.5,442.5 C 582.5,489.167 582.5,535.833 582.5,582.5C 388.167,582.5 193.833,582.5 -0.5,582.5C -0.5,538.167 -0.5,493.833 -0.5,449.5C 0.652846,451.636 1.98618,453.636 3.5,455.5C 4.30921,457.028 4.97588,458.694 5.5,460.5C 5.5,461.833 5.5,463.167 5.5,464.5C 6.95875,464.433 8.29208,464.766 9.5,465.5C 13.9678,470.139 18.3011,474.972 22.5,480C 29.7046,483.234 37.0379,485.734 44.5,487.5C 46.631,488.314 48.9644,488.814 51.5,489C 210.667,489.833 369.667,489.666 528.5,488.5C 539.187,487.409 549.52,484.576 559.5,480C 565.033,473.637 570.699,467.471 576.5,461.5C 578.834,459.824 579.834,457.491 579.5,454.5C 580.51,450.386 581.51,446.386 582.5,442.5 Z"/></g>
<g><path style="opacity:1" fill="#c5e0c9" d="M -0.5,441.5 C 0.166667,443.5 0.833333,445.5 1.5,447.5C 1.96283,450.221 2.6295,452.888 3.5,455.5C 1.98618,453.636 0.652846,451.636 -0.5,449.5C -0.5,446.833 -0.5,444.167 -0.5,441.5 Z"/></g>
<g><path style="opacity:1" fill="#c6dfc9" d="M 579.5,454.5 C 579.834,457.491 578.834,459.824 576.5,461.5C 576.935,458.843 577.935,456.509 579.5,454.5 Z"/></g>
<g><path style="opacity:1" fill="#c4dfc8" d="M 5.5,460.5 C 6.40397,461.209 6.73731,462.209 6.5,463.5C 8.17876,463.285 9.17876,463.952 9.5,465.5C 8.29208,464.766 6.95875,464.433 5.5,464.5C 5.5,463.167 5.5,461.833 5.5,460.5 Z"/></g>
<g><path style="opacity:1" fill="#deede1" d="M 44.5,487.5 C 205.822,488.489 367.155,488.822 528.5,488.5C 369.667,489.666 210.667,489.833 51.5,489C 48.9644,488.814 46.631,488.314 44.5,487.5 Z"/></g>
</svg>
